<?xml version="1.0" encoding="UTF-8" standalone="no"?>
<!-- Created with Inkscape (http://www.inkscape.org/) -->

<svg
   xmlns:dc="http://purl.org/dc/elements/1.1/"
   xmlns:cc="http://creativecommons.org/ns#"
   xmlns:rdf="http://www.w3.org/1999/02/22-rdf-syntax-ns#"
   xmlns:svg="http://www.w3.org/2000/svg"
   xmlns="http://www.w3.org/2000/svg"
   xmlns:sodipodi="http://sodipodi.sourceforge.net/DTD/sodipodi-0.dtd"
   xmlns:inkscape="http://www.inkscape.org/namespaces/inkscape"
   width="210mm"
   height="297mm"
   viewBox="0 0 744.09448819 1052.3622047"
   id="svg2"
   version="1.1"
   inkscape:version="0.91 r13725"
   sodipodi:docname="tree.svg">
  <defs
     id="defs4" />
  <sodipodi:namedview
     id="base"
     pagecolor="#ffffff"
     bordercolor="#666666"
     borderopacity="1.0"
     inkscape:pageopacity="0.0"
     inkscape:pageshadow="2"
     inkscape:zoom="2.8284271"
     inkscape:cx="165.25727"
     inkscape:cy="72.924874"
     inkscape:document-units="px"
     inkscape:current-layer="layer1"
     showgrid="true"
     inkscape:window-width="1920"
     inkscape:window-height="1028"
     inkscape:window-x="-8"
     inkscape:window-y="-8"
     inkscape:window-maximized="1">
    <inkscape:grid
       type="xygrid"
       id="grid4136" />
  </sodipodi:namedview>
  <metadata
     id="metadata7">
    <rdf:RDF>
      <cc:Work
         rdf:about="">
        <dc:format>image/svg+xml</dc:format>
        <dc:type
           rdf:resource="http://purl.org/dc/dcmitype/StillImage" />
        <dc:title></dc:title>
      </cc:Work>
    </rdf:RDF>
  </metadata>
  <g
     inkscape:label="Layer 1"
     inkscape:groupmode="layer"
     id="layer1">
    <path
       sodipodi:type="star"
       style="fill:#007c00;fill-opacity:1;stroke:#000000;stroke-width:1;stroke-miterlimit:4;stroke-dasharray:none;stroke-opacity:1"
       id="path4138"
       sodipodi:sides="11"
       sodipodi:cx="46.922436"
       sodipodi:cy="1005.5771"
       sodipodi:r1="46.097721"
       sodipodi:r2="40.604256"
       sodipodi:arg1="2.2794226"
       sodipodi:arg2="2.5650219"
       inkscape:flatsided="false"
       inkscape:rounded="0"
       inkscape:randomized="0"
       d="m 16.922436,1040.5771 -4.040052,-12.8645 -10.1199817,-8.9109 3.5563637,-13.0065 -3.6958993,-12.96755 10.0236593,-9.01906 3.901605,-12.90716 13.308514,-2.16813 10.260378,-8.74882 12.368009,5.37118 13.361553,-1.8128 7.500749,11.20518 12.220529,5.69877 0.252055,13.48161 7.199574,11.40098 -7.076666,11.4778 -0.107196,13.4835 -12.158595,5.8297 -7.37993,11.2852 -13.380256,-1.6692 -12.309591,5.5038 -10.353779,-8.6381 z"
       inkscape:transform-center-x="0.086043074"
       inkscape:transform-center-y="-0.14338964"
       transform="matrix(1.0655335,0,0,1.0693564,-7.2946624e-7,-72.988086)"
       inkscape:export-xdpi="17.989208"
       inkscape:export-ydpi="17.989208" />
    <path
       transform="matrix(0.9030175,0.11170757,-0.11172083,0.89858139,119.9719,93.527541)"
       inkscape:transform-center-y="-0.12951462"
       inkscape:transform-center-x="0.057943442"
       d="m 16.922436,1040.5771 -4.040052,-12.8645 -10.1199817,-8.9109 3.5563637,-13.0065 -3.6958993,-12.96755 10.0236593,-9.01906 3.901605,-12.90716 13.308514,-2.16813 10.260378,-8.74882 12.368009,5.37118 13.361553,-1.8128 7.500749,11.20518 12.220529,5.69877 0.252055,13.48161 7.199574,11.40098 -7.076666,11.4778 -0.107196,13.4835 -12.158595,5.8297 -7.37993,11.2852 -13.380256,-1.6692 -12.309591,5.5038 -10.353779,-8.6381 z"
       inkscape:randomized="0"
       inkscape:rounded="0"
       inkscape:flatsided="false"
       sodipodi:arg2="2.5650219"
       sodipodi:arg1="2.2794226"
       sodipodi:r2="40.604256"
       sodipodi:r1="46.097721"
       sodipodi:cy="1005.5771"
       sodipodi:cx="46.922436"
       sodipodi:sides="11"
       id="path4140"
       style="fill:#006a00;fill-opacity:1;stroke:#000000;stroke-width:1;stroke-miterlimit:4;stroke-dasharray:none;stroke-opacity:1"
       sodipodi:type="star"
       inkscape:export-xdpi="17.989208"
       inkscape:export-ydpi="17.989208" />
    <path
       sodipodi:type="star"
       style="fill:#007d00;fill-opacity:1;stroke:#000000;stroke-width:1;stroke-miterlimit:4;stroke-dasharray:none;stroke-opacity:1"
       id="path4142"
       sodipodi:sides="11"
       sodipodi:cx="46.922436"
       sodipodi:cy="1005.5771"
       sodipodi:r1="46.097721"
       sodipodi:r2="40.604256"
       sodipodi:arg1="2.2794226"
       sodipodi:arg2="2.5650219"
       inkscape:flatsided="false"
       inkscape:rounded="0"
       inkscape:randomized="0"
       d="m 16.922436,1040.5771 -4.040052,-12.8645 -10.1199817,-8.9109 3.5563637,-13.0065 -3.6958993,-12.96755 10.0236593,-9.01906 3.901605,-12.90716 13.308514,-2.16813 10.260378,-8.74882 12.368009,5.37118 13.361553,-1.8128 7.500749,11.20518 12.220529,5.69877 0.252055,13.48161 7.199574,11.40098 -7.076666,11.4778 -0.107196,13.4835 -12.158595,5.8297 -7.37993,11.2852 -13.380256,-1.6692 -12.309591,5.5038 -10.353779,-8.6381 z"
       inkscape:transform-center-x="0.022340886"
       inkscape:transform-center-y="-0.11509375"
       transform="matrix(0.7023242,0.25846257,-0.25630198,0.70253417,274.88949,283.79243)"
       inkscape:export-xdpi="17.989208"
       inkscape:export-ydpi="17.989208" />
    <path
       transform="matrix(0.5242255,0.26741823,-0.26669403,0.52058614,293.59149,466.36728)"
       inkscape:transform-center-y="-0.091424516"
       inkscape:transform-center-x="0.0065529953"
       d="m 16.922436,1040.5771 -4.040052,-12.8645 -10.1199817,-8.9109 3.5563637,-13.0065 -3.6958993,-12.96755 10.0236593,-9.01906 3.901605,-12.90716 13.308514,-2.16813 10.260378,-8.74882 12.368009,5.37118 13.361553,-1.8128 7.500749,11.20518 12.220529,5.69877 0.252055,13.48161 7.199574,11.40098 -7.076666,11.4778 -0.107196,13.4835 -12.158595,5.8297 -7.37993,11.2852 -13.380256,-1.6692 -12.309591,5.5038 -10.353779,-8.6381 z"
       inkscape:randomized="0"
       inkscape:rounded="0"
       inkscape:flatsided="false"
       sodipodi:arg2="2.5650219"
       sodipodi:arg1="2.2794226"
       sodipodi:r2="40.604256"
       sodipodi:r1="46.097721"
       sodipodi:cy="1005.5771"
       sodipodi:cx="46.922436"
       sodipodi:sides="11"
       id="path4144"
       style="fill:#009100;fill-opacity:1;stroke:#000000;stroke-width:1;stroke-miterlimit:4;stroke-dasharray:none;stroke-opacity:1"
       sodipodi:type="star"
       inkscape:export-xdpi="17.989208"
       inkscape:export-ydpi="17.989208" />
    <path
       sodipodi:type="star"
       style="fill:#00a700;fill-opacity:1;stroke:#000000;stroke-width:1;stroke-miterlimit:4;stroke-dasharray:none;stroke-opacity:1"
       id="path4146"
       sodipodi:sides="11"
       sodipodi:cx="46.922436"
       sodipodi:cy="1005.5771"
       sodipodi:r1="46.097721"
       sodipodi:r2="40.604256"
       sodipodi:arg1="2.2794226"
       sodipodi:arg2="2.5650219"
       inkscape:flatsided="false"
       inkscape:rounded="0"
       inkscape:randomized="0"
       d="m 16.922436,1040.5771 -4.040052,-12.8645 -10.1199817,-8.9109 3.5563637,-13.0065 -3.6958993,-12.96755 10.0236593,-9.01906 3.901605,-12.90716 13.308514,-2.16813 10.260378,-8.74882 12.368009,5.37118 13.361553,-1.8128 7.500749,11.20518 12.220529,5.69877 0.252055,13.48161 7.199574,11.40098 -7.076666,11.4778 -0.107196,13.4835 -12.158595,5.8297 -7.37993,11.2852 -13.380256,-1.6692 -12.309591,5.5038 -10.353779,-8.6381 z"
       inkscape:transform-center-x="-0.0037075438"
       inkscape:transform-center-y="-0.066693446"
       transform="matrix(0.35290317,0.2414208,-0.24004518,0.3517829,274.86882,637.32786)"
       inkscape:export-xdpi="17.989208"
       inkscape:export-ydpi="17.989208" />
    <path
       transform="matrix(0.1929799,0.18528592,-0.18527173,0.19036351,227.30569,802.30493)"
       inkscape:transform-center-y="-0.040508052"
       inkscape:transform-center-x="-0.0092645391"
       d="m 16.922436,1040.5771 -4.040052,-12.8645 -10.1199817,-8.9109 3.5563637,-13.0065 -3.6958993,-12.96755 10.0236593,-9.01906 3.901605,-12.90716 13.308514,-2.16813 10.260378,-8.74882 12.368009,5.37118 13.361553,-1.8128 7.500749,11.20518 12.220529,5.69877 0.252055,13.48161 7.199574,11.40098 -7.076666,11.4778 -0.107196,13.4835 -12.158595,5.8297 -7.37993,11.2852 -13.380256,-1.6692 -12.309591,5.5038 -10.353779,-8.6381 z"
       inkscape:randomized="0"
       inkscape:rounded="0"
       inkscape:flatsided="false"
       sodipodi:arg2="2.5650219"
       sodipodi:arg1="2.2794226"
       sodipodi:r2="40.604256"
       sodipodi:r1="46.097721"
       sodipodi:cy="1005.5771"
       sodipodi:cx="46.922436"
       sodipodi:sides="11"
       id="path4148"
       style="fill:#009800;fill-opacity:1;stroke:#000000;stroke-width:1;stroke-miterlimit:4;stroke-dasharray:none;stroke-opacity:1"
       sodipodi:type="star"
       inkscape:export-xdpi="17.989208"
       inkscape:export-ydpi="17.989208" />
    <path
       sodipodi:type="star"
       style="fill:#006d00;fill-opacity:1;stroke:#000000;stroke-width:1;stroke-miterlimit:4;stroke-dasharray:none;stroke-opacity:1"
       id="path4150"
       sodipodi:sides="11"
       sodipodi:cx="46.922436"
       sodipodi:cy="1005.5771"
       sodipodi:r1="46.097721"
       sodipodi:r2="40.604256"
       sodipodi:arg1="2.2794226"
       sodipodi:arg2="2.5650219"
       inkscape:flatsided="false"
       inkscape:rounded="0"
       inkscape:randomized="0"
       d="m 16.922436,1040.5771 -4.040052,-12.8645 -10.1199817,-8.9109 3.5563637,-13.0065 -3.6958993,-12.96755 10.0236593,-9.01906 3.901605,-12.90716 13.308514,-2.16813 10.260378,-8.74882 12.368009,5.37118 13.361553,-1.8128 7.500749,11.20518 12.220529,5.69877 0.252055,13.48161 7.199574,11.40098 -7.076666,11.4778 -0.107196,13.4835 -12.158595,5.8297 -7.37993,11.2852 -13.380256,-1.6692 -12.309591,5.5038 -10.353779,-8.6381 z"
       inkscape:transform-center-x="-0.010661145"
       inkscape:transform-center-y="-0.012591612"
       transform="matrix(0.03462802,0.10060191,-0.10025355,0.03326099,149.17531,964.25188)"
       inkscape:export-xdpi="17.989208"
       inkscape:export-ydpi="17.989208" />
  </g>
</svg>
